<?xml version="1.0" encoding="UTF-8" standalone="no"?>
<svg
   xmlns:dc="http://purl.org/dc/elements/1.1/"
   xmlns:cc="http://creativecommons.org/ns#"
   xmlns:rdf="http://www.w3.org/1999/02/22-rdf-syntax-ns#"
   xmlns:svg="http://www.w3.org/2000/svg"
   xmlns="http://www.w3.org/2000/svg"
   xmlns:sodipodi="http://sodipodi.sourceforge.net/DTD/sodipodi-0.dtd"
   xmlns:inkscape="http://www.inkscape.org/namespaces/inkscape"
   inkscape:version="1.0beta2 (2b71d25, 2019-12-03)"
   sodipodi:docname="medal.svg"
   id="svg835"
   version="1.1"
   size="48"
   width="48"
   height="48"
   viewBox="0 0 512 512"
   fill="currentColor"
   stroke="currentColor">
  <metadata
     id="metadata841">
    <rdf:RDF>
      <cc:Work
         rdf:about="">
        <dc:format>image/svg+xml</dc:format>
        <dc:type
           rdf:resource="http://purl.org/dc/dcmitype/StillImage" />
      </cc:Work>
    </rdf:RDF>
  </metadata>
  <defs
     id="defs839" />
  <sodipodi:namedview
     inkscape:current-layer="svg835"
     inkscape:window-maximized="0"
     inkscape:window-y="23"
     inkscape:window-x="57"
     inkscape:cy="58.868066"
     inkscape:cx="-29.602508"
     inkscape:zoom="2.2630208"
     showgrid="false"
     id="namedview837"
     inkscape:window-height="1035"
     inkscape:window-width="1863"
     inkscape:pageshadow="2"
     inkscape:pageopacity="0"
     guidetolerance="10"
     gridtolerance="10"
     objecttolerance="10"
     borderopacity="1"
     inkscape:document-rotation="0"
     bordercolor="#666666"
     pagecolor="#ffffff" />
  <path
     style="fill:#d4000f;fill-opacity:1"
     id="path833"
     d="M223.75 130.75L154.62 15.54A31.997 31.997 0 0 0 127.18 0H16.03C3.08 0-4.5 14.57 2.92 25.18l111.27 158.96c29.72-27.77 67.52-46.83 109.56-53.39zM495.97 0H384.82c-11.24 0-21.66 5.9-27.44 15.54l-69.13 115.21c42.04 6.56 79.84 25.62 109.56 53.38L509.08 25.18C516.5 14.57 508.92 0 495.97 0zM256 160c-97.2 0-176 78.8-176 176s78.8 176 176 176 176-78.8 176-176-78.8-176-176-176zm92.52 157.26l-37.93 36.96 8.97 52.22c1.6 9.36-8.26 16.51-16.65 12.09L256 393.88l-46.9 24.65c-8.4 4.45-18.25-2.74-16.65-12.09l8.97-52.22-37.93-36.96c-6.82-6.64-3.05-18.23 6.35-19.59l52.43-7.64 23.43-47.52c2.11-4.28 6.19-6.39 10.28-6.39 4.11 0 8.22 2.14 10.33 6.39l23.43 47.52 52.43 7.64c9.4 1.36 13.17 12.95 6.35 19.59z" />
  <path
     transform="scale(10.666667)"
     inkscape:connector-curvature="0"
     id="path843"
     d="m 18.711639,39.185473 c -0.269065,-0.122219 -0.498925,-0.382117 -0.57199,-0.646739 -0.06203,-0.224654 -0.08295,-0.07706 0.441554,-3.115949 l 0.386106,-2.237054 -1.90714,-1.878021 c -1.324631,-1.304406 -1.917912,-1.925331 -1.942408,-2.032915 -0.113239,-0.497332 0.125922,-1.016088 0.552197,-1.197755 0.136616,-0.05822 1.18322,-0.233209 2.629697,-0.439673 1.321519,-0.188628 2.449193,-0.356037 2.505943,-0.372019 0.07139,-0.02011 0.451275,-0.737758 1.233031,-2.329367 0.621417,-1.265169 1.171533,-2.346451 1.22248,-2.402848 0.243613,-0.269675 0.74618,-0.385562 1.09709,-0.252979 0.33309,0.12585 0.469116,0.350868 1.598063,2.643584 0.619661,1.258435 1.13731,2.298718 1.15033,2.311738 0.01302,0.01302 1.112736,0.181975 2.443811,0.375454 1.331076,0.193479 2.512228,0.378025 2.624783,0.410102 0.631147,0.179867 0.94155,0.937554 0.598393,1.460665 -0.05801,0.08843 -0.921112,0.952804 -1.918006,1.920831 -1.444279,1.402457 -1.808939,1.784845 -1.794834,1.882098 0.0097,0.06713 0.202357,1.203291 0.428049,2.52481 0.225691,1.321519 0.410361,2.463268 0.410377,2.537222 5.1e-5,0.23347 -0.214175,0.59153 -0.452887,0.756957 -0.184472,0.127839 -0.287083,0.158065 -0.536607,0.158065 -0.2953,0 -0.406069,-0.05148 -2.585075,-1.201381 -1.252105,-0.660759 -2.296772,-1.201381 -2.321483,-1.201381 -0.02471,0 -0.876902,0.438037 -1.893757,0.973415 -3.016267,1.588077 -2.943928,1.559268 -3.397717,1.35314 z"
     style="fill:#ffff00;stroke-width:0.0086168" />
</svg>
